<svg width="32" height="32" viewBox="0 0 32 32" fill="none" xmlns="http://www.w3.org/2000/svg">
<path d="M31.9851 13.6365C31.9851 6.11079 24.8278 0 15.9926 0C7.15731 0 0 6.11079 0 13.6365C0 20.1983 5.4348 25.6715 12.6812 26.9776L12.7703 26.9932C13.0524 27.0398 13.3346 27.0865 13.6167 27.1176C14.4186 27.2731 14.9531 28.0661 14.8046 28.9057C14.8046 28.9368 14.8046 28.9524 14.8046 28.9835C14.4928 31.0826 14.4483 32 15.265 32C16.0817 32 26.7137 26.0136 29.9508 20.3071C31.2724 18.3479 31.9852 16.0311 32 13.6365" fill="white"/>
<path d="M7.29026 10.542C7.29026 10.4331 7.20117 10.3398 7.09722 10.3398H5.80534C5.7014 10.3398 5.6123 10.4331 5.6123 10.542V17.5235C5.6123 17.6324 5.7014 17.7257 5.80534 17.7257H10.2601C10.364 17.7257 10.4531 17.6324 10.4531 17.5235V16.3418C10.4531 16.2329 10.364 16.1397 10.2601 16.1397H7.46845C7.36451 16.1397 7.27541 16.0464 7.27541 15.9375V10.5264L7.29026 10.542Z" fill="#06C755"/>
<path d="M13.0069 11.2262C13.0069 10.7453 12.6346 10.3555 12.1753 10.3555C11.716 10.3555 11.3438 10.7453 11.3438 11.2262V16.855C11.3438 17.3359 11.716 17.7257 12.1753 17.7257C12.6346 17.7257 13.0069 17.3359 13.0069 16.855V11.2262Z" fill="#06C755"/>
<path d="M18.3529 13.4342V14.1494C18.3529 14.2583 18.3083 14.2894 18.2638 14.2116C18.2192 14.1339 18.041 13.8696 17.9816 13.7763L15.873 10.511C15.7988 10.4177 15.6949 10.3555 15.5761 10.3555H14.4772C14.3733 10.3555 14.2842 10.4488 14.2842 10.5576V17.5391C14.2842 17.648 14.3733 17.7413 14.4772 17.7413H15.7246C15.8285 17.7413 15.9176 17.648 15.9176 17.5391V13.8229C15.9176 13.7141 15.9621 13.6985 16.0215 13.7918L16.1403 13.994L16.3482 14.3205L18.4271 17.5858C18.5014 17.6791 18.6053 17.7413 18.7241 17.7568H19.7932C19.8972 17.7568 19.9863 17.6635 19.9863 17.5547V10.5732C19.9863 10.4643 19.8972 10.371 19.7932 10.371H18.5459C18.442 10.371 18.3529 10.4643 18.3529 10.5732V13.4497V13.4342Z" fill="#06C755"/>
<path d="M23.2985 16.1707C23.1946 16.1707 23.1055 16.0774 23.1055 15.9685V14.8645C23.1055 14.7557 23.1946 14.6624 23.2985 14.6624H25.6299C25.7338 14.6624 25.8229 14.5691 25.8229 14.4603V13.2941C25.8229 13.1853 25.7338 13.092 25.6299 13.092H23.2985C23.1946 13.092 23.1055 12.9987 23.1055 12.8898V12.0968C23.1055 11.988 23.1946 11.8947 23.2985 11.8947H25.7783C25.8823 11.8947 25.9714 11.8014 25.9714 11.6925V10.5264C25.9714 10.4175 25.8823 10.3242 25.7783 10.3242H21.6354C21.5315 10.3242 21.4424 10.4175 21.4424 10.5264V17.5079C21.4424 17.6167 21.5315 17.71 21.6354 17.71H25.9417C26.0456 17.71 26.1347 17.6167 26.1347 17.5079V16.3417C26.1347 16.2329 26.0456 16.1396 25.9417 16.1396H23.2985V16.1707Z" fill="#06C755"/>
</svg>
