<svg width="20" height="20" viewBox="0 0 20 20" fill="none" xmlns="http://www.w3.org/2000/svg">
<path fill-rule="evenodd" clip-rule="evenodd" d="M10 19.5C15.2467 19.5 19.5 15.2467 19.5 10C19.5 4.75329 15.2467 0.5 10 0.5C4.75329 0.5 0.5 4.75329 0.5 10C0.5 15.2467 4.75329 19.5 10 19.5ZM10 20C15.5228 20 20 15.5228 20 10C20 4.47715 15.5228 0 10 0C4.47715 0 0 4.47715 0 10C0 15.5228 4.47715 20 10 20Z" fill="#02B1A6"/>
<path d="M5 9.33268L7.33333 13.9993L15.3333 5.66602" stroke="#02B1A6" stroke-width="0.666667"/>
</svg>
